<svg width="32" height="32" viewBox="0 0 32 32" fill="none" xmlns="http://www.w3.org/2000/svg">
<path d="M16 32C24.8366 32 32 24.8366 32 16C32 7.16344 24.8366 0 16 0C7.16344 0 0 7.16344 0 16C0 24.8366 7.16344 32 16 32Z" fill="#FF5C00"/>
<path d="M32 16C32 14.3051 31.7356 12.6721 31.2473 11.1391L24.7664 4.65819L21.827 4.65225L19.2944 2.13669L7.48506 28.4682L9.74962 30.7328C11.6699 31.5485 13.7822 32 16 32C24.8366 32 32 24.8366 32 16Z" fill="#FF3D00"/>
<path d="M23.4512 28.8448H8.54881C7.61449 28.8448 6.85706 28.0874 6.85706 27.1531V5.72189C6.85706 4.78757 7.61449 4.03014 8.54881 4.03014H9.28262L16 4.75001L22.7174 4.0302H23.4512C24.3855 4.0302 25.143 4.78764 25.143 5.72195V27.1531C25.1429 28.0875 24.3855 28.8448 23.4512 28.8448Z" fill="#005FD2"/>
<path d="M25.1431 5.72187V27.1531C25.1431 28.0875 24.3856 28.845 23.4513 28.845H16V4.75L19.5725 4.36687L22.7175 4.03H23.4513C24.3856 4.03 25.1431 4.7875 25.1431 5.72187Z" fill="#00459F"/>
<path d="M9.28255 4.03019H22.7174V26.2176H9.28255V4.03019Z" fill="white"/>
<path d="M16 4.03H22.7175V26.2175H16V4.03Z" fill="#E9EDF5"/>
<path d="M18.1034 6.4535H13.8966C13.0851 6.4535 12.4273 5.79569 12.4273 4.98419V3.07612C12.4273 2.26462 13.0851 1.60681 13.8966 1.60681H18.2249C18.9692 1.60681 19.5727 2.21025 19.5727 2.95469V4.98419C19.5727 5.79569 18.9149 6.4535 18.1034 6.4535Z" fill="#FF908A"/>
<path d="M19.5725 2.955V4.98437C19.5725 5.79562 18.915 6.45375 18.1031 6.45375H16V1.60687H18.225C18.9694 1.60687 19.5725 2.21 19.5725 2.955Z" fill="#FF6F64"/>
<path d="M16 10.0833H20.7292V11.9583H16V10.0833Z" fill="#274A59"/>
<path d="M11.3125 9.77088H13.8124V12.2708H11.3125V9.77088Z" fill="#FEDD55"/>
<path d="M16 15.3438H20.7292V17.2188H16V15.3438Z" fill="#274A59"/>
<path d="M11.3125 15.0313H13.8124V17.5312H11.3125V15.0313Z" fill="#FEDD55"/>
<path d="M16 20.6042H20.7292V22.4792H16V20.6042Z" fill="#274A59"/>
<path d="M11.3125 20.2917H13.8124V22.7916H11.3125V20.2917Z" fill="#FEDD55"/>
</svg>
