<?xml version="1.0" encoding="iso-8859-1"?>
<!-- Generator: Adobe Illustrator 19.0.0, SVG Export Plug-In . SVG Version: 6.00 Build 0)  -->
<svg version="1.1" id="Capa_1" xmlns="http://www.w3.org/2000/svg" xmlns:xlink="http://www.w3.org/1999/xlink" x="0px" y="0px"
	 viewBox="0 0 511.984 511.984" style="enable-background:new 0 0 511.984 511.984;" xml:space="preserve">
<g>
	<g>
		<g>
			<path d="M187.725,247.459v17.067h8.533c4.713,0,8.533,3.821,8.533,8.533c0,4.713-3.82,8.533-8.533,8.533h-8.533v17.067h8.533
				c4.713,0,8.533,3.82,8.533,8.533s-3.82,8.533-8.533,8.533h-7.68c4.083,19.852,21.546,34.108,41.813,34.133h51.2
				c20.268-0.026,37.731-14.281,41.813-34.133h-7.68c-4.713,0-8.533-3.82-8.533-8.533s3.82-8.533,8.533-8.533h8.533v-17.067h-8.533
				c-4.713,0-8.533-3.821-8.533-8.533c0-4.713,3.82-8.533,8.533-8.533h8.533v-17.067h-128H187.725z M230.76,285.69
				c2.108-12.289,12.763-21.271,25.231-21.271c12.468,0,23.123,8.982,25.231,21.271c2.108,12.289-4.943,24.309-16.698,28.465v10.103
				c0,4.713-3.82,8.533-8.533,8.533c-4.713,0-8.533-3.82-8.533-8.533v-10.103C235.703,309.999,228.652,297.979,230.76,285.69z"/>
			<circle cx="255.991" cy="290.125" r="8.533"/>
			<path d="M307.191,204.792c0-28.277-22.923-51.2-51.2-51.2s-51.2,22.923-51.2,51.2v25.6h102.4V204.792z"/>
			<path d="M259.234,50.509c1.053-0.435,2.01-1.072,2.816-1.877c2.441-2.408,3.153-6.068,1.792-9.216
				c-0.433-1.034-1.039-1.986-1.792-2.816c-3.422-3.157-8.695-3.157-12.117,0c-0.753,0.83-1.359,1.782-1.792,2.816
				c-0.478,1.013-0.712,2.123-0.683,3.243c-0.016,1.109,0.184,2.21,0.589,3.243c0.483,1.003,1.119,1.924,1.886,2.731
				c0.789,0.825,1.751,1.466,2.816,1.877C254.815,51.419,257.168,51.419,259.234,50.509z"/>
			<path d="M511.887,253.136c-1.503-22.402-20.11-39.806-42.562-39.811c-20.268,0.026-37.731,14.281-41.813,34.133h-18.355
				c-2.128-38.901-19.018-75.525-47.224-102.4l24.166-24.166c18.324,12.128,42.856,8.407,56.76-8.61
				c13.903-17.017,12.659-41.798-2.88-57.337s-40.32-16.783-57.337-2.88c-17.017,13.903-20.738,38.435-8.61,56.76l-25.139,25.139
				c-24.357-18.618-53.757-29.469-84.369-31.138V84.472c21.461-4.381,36.119-24.3,33.917-46.093
				c-2.201-21.793-20.547-38.378-42.451-38.378s-40.249,16.586-42.451,38.378c-2.202,21.793,12.456,41.712,33.917,46.093v18.364
				c-77.974,4.411-140.216,66.649-144.631,144.623H84.471c-4.381-21.461-24.3-36.119-46.093-33.917
				C16.586,215.743,0,234.088,0,255.992s16.586,40.249,38.378,42.451c21.793,2.202,41.712-12.456,46.093-33.917h18.364
				c1.667,30.611,12.514,60.011,31.13,84.369l-25.139,25.139c-18.324-12.128-42.856-8.407-56.76,8.61
				c-13.903,17.017-12.659,41.798,2.88,57.337s40.32,16.783,57.337,2.88c17.017-13.903,20.738-38.435,8.61-56.76l24.166-24.166
				c26.875,28.206,63.499,45.095,102.4,47.224v18.355c-21.461,4.381-36.119,24.3-33.917,46.093
				c2.201,21.793,20.547,38.378,42.451,38.378s40.249-16.586,42.451-38.378c2.202-21.793-12.456-41.712-33.917-46.093v-18.355
				c77.978-4.411,140.22-66.654,144.632-144.632h18.355c4.49,21.999,25.262,36.753,47.512,33.75S513.39,275.538,511.887,253.136z
				 M409.591,59.725c14.138,0,25.6,11.461,25.6,25.6s-11.461,25.6-25.6,25.6s-25.6-11.462-25.6-25.6S395.453,59.725,409.591,59.725z
				 M42.658,281.592c-14.138,0-25.6-11.462-25.6-25.6s11.462-25.6,25.6-25.6s25.6,11.461,25.6,25.6S56.796,281.592,42.658,281.592z
				 M85.325,435.192c-14.138,0-25.6-11.461-25.6-25.6s11.461-25.6,25.6-25.6s25.6,11.462,25.6,25.6S99.463,435.192,85.325,435.192z
				 M230.391,42.659c0-14.138,11.461-25.6,25.6-25.6c14.139,0,25.6,11.462,25.6,25.6s-11.462,25.6-25.6,25.6
				C241.853,68.259,230.391,56.797,230.391,42.659z M281.591,469.325c0,14.138-11.462,25.6-25.6,25.6
				c-14.138,0-25.6-11.461-25.6-25.6s11.461-25.6,25.6-25.6C270.13,443.725,281.591,455.187,281.591,469.325z M341.325,307.192
				c-0.042,32.972-26.761,59.691-59.733,59.733h-51.2c-32.972-0.042-59.691-26.761-59.733-59.733v-59.733
				c0-9.426,7.641-17.067,17.067-17.067v-25.6c0-37.703,30.564-68.267,68.267-68.267s68.267,30.564,68.267,68.267v25.6
				c9.426,0,17.067,7.641,17.067,17.067V307.192z M469.325,281.592c-14.138,0-25.6-11.462-25.6-25.6s11.462-25.6,25.6-25.6
				s25.6,11.461,25.6,25.6S483.463,281.592,469.325,281.592z"/>
			<path d="M475.383,249.933c-3.422-3.157-8.695-3.157-12.117,0c-0.753,0.83-1.359,1.782-1.792,2.816
				c-0.478,1.013-0.712,2.123-0.683,3.243c-0.016,1.109,0.184,2.21,0.589,3.243c0.483,1.003,1.119,1.924,1.886,2.731
				c0.789,0.825,1.751,1.466,2.816,1.877c2.066,0.911,4.419,0.911,6.485,0c1.053-0.435,2.01-1.073,2.816-1.877
				c2.441-2.408,3.153-6.068,1.792-9.216C476.742,251.716,476.136,250.763,475.383,249.933z"/>
			<path d="M48.717,249.933c-3.422-3.157-8.695-3.157-12.117,0c-0.753,0.83-1.359,1.782-1.792,2.816
				c-0.478,1.013-0.712,2.123-0.683,3.243c-0.016,1.109,0.184,2.21,0.589,3.243c0.483,1.003,1.119,1.924,1.886,2.731
				c0.789,0.825,1.751,1.466,2.816,1.877c2.066,0.91,4.419,0.91,6.485,0c1.053-0.435,2.01-1.073,2.816-1.877
				c2.441-2.408,3.153-6.068,1.792-9.216C50.076,251.716,49.47,250.763,48.717,249.933z"/>
			<path d="M91.383,403.431c-3.419-3.166-8.699-3.166-12.117,0c-0.755,0.828-1.361,1.781-1.792,2.816
				c-0.478,1.013-0.712,2.123-0.683,3.243c-0.015,1.106,0.185,2.204,0.589,3.234c0.481,1.006,1.117,1.931,1.886,2.739
				c0.79,0.822,1.751,1.46,2.816,1.869c2.064,0.921,4.422,0.921,6.485,0c1.053-0.431,2.01-1.067,2.816-1.869
				c2.441-2.408,3.153-6.068,1.792-9.216C92.745,405.212,92.138,404.259,91.383,403.431z"/>
			<path d="M249.933,463.267c-0.753,0.83-1.359,1.782-1.792,2.816c-0.478,1.013-0.712,2.123-0.683,3.243
				c-0.016,1.109,0.184,2.21,0.589,3.243c0.483,1.003,1.119,1.924,1.886,2.731c0.789,0.825,1.751,1.466,2.816,1.877
				c2.066,0.91,4.419,0.91,6.485,0c1.053-0.435,2.01-1.072,2.816-1.877c2.441-2.408,3.153-6.068,1.792-9.216
				c-0.433-1.034-1.039-1.986-1.792-2.816C258.628,460.109,253.355,460.109,249.933,463.267z"/>
			<path d="M403.533,91.196c0.79,0.822,1.751,1.46,2.816,1.869c2.064,0.921,4.422,0.921,6.485,0c1.053-0.431,2.01-1.066,2.816-1.869
				c2.441-2.408,3.153-6.068,1.792-9.216c-0.431-1.035-1.037-1.987-1.792-2.816c-3.419-3.166-8.698-3.166-12.117,0
				c-0.755,0.829-1.361,1.781-1.792,2.816c-0.478,1.013-0.712,2.123-0.683,3.243c-0.015,1.106,0.185,2.204,0.589,3.234
				C402.128,89.463,402.764,90.388,403.533,91.196z"/>
		</g>
	</g>
</g>
<g>
</g>
<g>
</g>
<g>
</g>
<g>
</g>
<g>
</g>
<g>
</g>
<g>
</g>
<g>
</g>
<g>
</g>
<g>
</g>
<g>
</g>
<g>
</g>
<g>
</g>
<g>
</g>
<g>
</g>
</svg>
