<svg width="32" height="32" viewBox="0 0 32 32" fill="none" xmlns="http://www.w3.org/2000/svg">
<path d="M21.3538 23.1235H1.768C1.5135 23.1235 1.30713 22.9171 1.30713 22.6626V1.46387C1.30713 1.20937 1.5135 1.003 1.768 1.003H21.3538C21.6083 1.003 21.8146 1.20937 21.8146 1.46387V22.6626C21.8146 22.9171 21.6083 23.1235 21.3538 23.1235Z" fill="#4671C6"/>
<path d="M17.1601 19.392H5.96162C5.75799 19.392 5.59299 19.227 5.59299 19.0234V5.10312C5.59299 4.8995 5.75799 4.7345 5.96162 4.7345H17.1601C17.3637 4.7345 17.5287 4.8995 17.5287 5.10312V19.0234C17.5287 19.227 17.3637 19.392 17.1601 19.392Z" fill="#E0EBFC"/>
<path d="M17.5287 23.1235H5.59299V22.0621C5.59299 21.8585 5.75799 21.6935 5.96162 21.6935H17.1601C17.3637 21.6935 17.5287 21.8585 17.5287 22.0621V23.1235Z" fill="#E0EBFC"/>
<path d="M17.1601 2.43313H5.96162C5.75799 2.43313 5.59299 2.26813 5.59299 2.0645V1.00313H17.5287V2.0645C17.5287 2.268 17.3637 2.43313 17.1601 2.43313Z" fill="#E0EBFC"/>
<path d="M4.23212 21.6934H2.66812C2.4645 21.6934 2.2995 21.5284 2.2995 21.3247V19.7607C2.2995 19.5571 2.4645 19.3921 2.66812 19.3921H4.23212C4.43575 19.3921 4.60075 19.5571 4.60075 19.7607V21.3247C4.60075 21.5284 4.43575 21.6934 4.23212 21.6934Z" fill="#A4C9FF"/>
<path d="M4.23212 17.4536H2.66812C2.4645 17.4536 2.2995 17.2886 2.2995 17.085V15.521C2.2995 15.3174 2.4645 15.1524 2.66812 15.1524H4.23212C4.43575 15.1524 4.60075 15.3174 4.60075 15.521V17.085C4.60075 17.2886 4.43575 17.4536 4.23212 17.4536Z" fill="#A4C9FF"/>
<path d="M4.23212 13.2139H2.66812C2.4645 13.2139 2.2995 13.0489 2.2995 12.8453V11.2813C2.2995 11.0776 2.4645 10.9126 2.66812 10.9126H4.23212C4.43575 10.9126 4.60075 11.0776 4.60075 11.2813V12.8453C4.60075 13.0489 4.43575 13.2139 4.23212 13.2139Z" fill="#A4C9FF"/>
<path d="M4.27775 4.78013H2.71375C2.51012 4.78013 2.34512 4.61513 2.34512 4.4115V2.84738C2.34512 2.64375 2.51012 2.47875 2.71375 2.47875H4.27775C4.48137 2.47875 4.64637 2.64375 4.64637 2.84738V4.41138C4.64637 4.615 4.48137 4.78013 4.27775 4.78013Z" fill="#A4C9FF"/>
<path d="M20.4994 21.7391H18.9354C18.7318 21.7391 18.5667 21.5741 18.5667 21.3705V19.8065C18.5667 19.6029 18.7318 19.4379 18.9354 19.4379H20.4994C20.703 19.4379 20.868 19.6029 20.868 19.8065V21.3705C20.868 21.574 20.703 21.7391 20.4994 21.7391Z" fill="#A4C9FF"/>
<path d="M20.4994 4.78013H18.9354C18.7318 4.78013 18.5667 4.61513 18.5667 4.4115V2.84738C18.5667 2.64375 18.7318 2.47875 18.9354 2.47875H20.4994C20.703 2.47875 20.868 2.64375 20.868 2.84738V4.41138C20.868 4.615 20.703 4.78013 20.4994 4.78013Z" fill="#A4C9FF"/>
<path d="M11.3697 15.5333C13.296 15.5333 14.8575 13.9717 14.8575 12.0455C14.8575 10.1193 13.296 8.55775 11.3697 8.55775C9.44351 8.55775 7.882 10.1193 7.882 12.0455C7.882 13.9717 9.44351 15.5333 11.3697 15.5333Z" fill="#A4C9FF"/>
<path d="M9.85287 10.7471V13.344C9.85287 13.6711 10.1986 13.8827 10.4899 13.7339L13.0302 12.4354C13.3484 12.2727 13.3484 11.8182 13.0302 11.6557L10.4899 10.3572C10.1986 10.2084 9.85287 10.42 9.85287 10.7471Z" fill="#F9A7A7"/>
<path d="M4.23212 8.97425H2.66812C2.4645 8.97425 2.2995 8.80925 2.2995 8.60562V7.0415C2.2995 6.83787 2.4645 6.67287 2.66812 6.67287H4.23212C4.43575 6.67287 4.60075 6.83787 4.60075 7.0415V8.6055C4.60075 8.80912 4.43575 8.97425 4.23212 8.97425Z" fill="#A4C9FF"/>
<path d="M20.4538 17.4536H18.8897C18.6861 17.4536 18.5211 17.2886 18.5211 17.085V15.521C18.5211 15.3174 18.6861 15.1524 18.8897 15.1524H20.4538C20.6574 15.1524 20.8224 15.3174 20.8224 15.521V17.085C20.8224 17.2886 20.6574 17.4536 20.4538 17.4536Z" fill="#A4C9FF"/>
<path d="M20.4538 13.2139H18.8897C18.6861 13.2139 18.5211 13.0489 18.5211 12.8453V11.2813C18.5211 11.0776 18.6861 10.9126 18.8897 10.9126H20.4538C20.6574 10.9126 20.8224 11.0776 20.8224 11.2813V12.8453C20.8224 13.0489 20.6574 13.2139 20.4538 13.2139Z" fill="#A4C9FF"/>
<path d="M20.4538 8.97425H18.8897C18.6861 8.97425 18.5211 8.80925 18.5211 8.60562V7.0415C18.5211 6.83787 18.6861 6.67287 18.8897 6.67287H20.4538C20.6574 6.67287 20.8224 6.83787 20.8224 7.0415V8.6055C20.8224 8.80912 20.6574 8.97425 20.4538 8.97425Z" fill="#A4C9FF"/>
<path d="M11.3698 15.7834C9.30875 15.7834 7.632 14.1066 7.632 12.0456C7.632 9.98463 9.30875 8.30775 11.3698 8.30775C13.4308 8.30775 15.1075 9.9845 15.1075 12.0455C15.1075 14.1065 13.4308 15.7834 11.3698 15.7834ZM11.3698 8.80775C9.5845 8.80775 8.132 10.2603 8.132 12.0455C8.132 13.8308 9.5845 15.2833 11.3698 15.2833C13.155 15.2833 14.6075 13.8308 14.6075 12.0455C14.6075 10.2603 13.155 8.80775 11.3698 8.80775Z" fill="#3762CC"/>
<path d="M10.2903 14.0325C10.1661 14.0325 10.0424 13.9984 9.93163 13.9307C9.72588 13.8047 9.60288 13.5855 9.60288 13.3441V10.7471C9.60288 10.5057 9.72576 10.2864 9.93176 10.1604C10.1375 10.0345 10.3888 10.0247 10.6036 10.1346L13.144 11.433C13.3753 11.5511 13.5189 11.7859 13.5188 12.0455C13.5188 12.3051 13.3753 12.5397 13.144 12.6579L10.6036 13.9564C10.5043 14.0072 10.3971 14.0325 10.2903 14.0325ZM10.2911 10.5587C10.2456 10.5587 10.21 10.5764 10.1928 10.587C10.1656 10.6035 10.1029 10.6521 10.1029 10.7472V13.3441C10.1029 13.4391 10.1656 13.4877 10.1926 13.5044C10.2198 13.5209 10.2914 13.5545 10.3761 13.5114L12.9165 12.2129C13.0089 12.1656 13.0188 12.0802 13.0188 12.0457C13.0189 12.0111 13.0089 11.9257 12.9165 11.8785L10.3761 10.5799C10.3456 10.5644 10.3168 10.5587 10.2911 10.5587Z" fill="#3762CC"/>
<path d="M9.101 12.3132H6.912C6.774 12.3132 6.662 12.2012 6.662 12.0632C6.662 11.9252 6.774 11.8132 6.912 11.8132H9.101C9.239 11.8132 9.351 11.9252 9.351 12.0632C9.351 12.2012 9.239 12.3132 9.101 12.3132Z" fill="#3762CC"/>
<path d="M16.2099 12.3132H14.0209C13.8827 12.3132 13.7709 12.2012 13.7709 12.0632C13.7709 11.9252 13.8827 11.8132 14.0209 11.8132H16.2099C16.3479 11.8132 16.4599 11.9252 16.4599 12.0632C16.4599 12.2012 16.3479 12.3132 16.2099 12.3132Z" fill="#3762CC"/>
<path d="M11.3698 10.2035C11.2318 10.2035 11.1198 10.0915 11.1198 9.9535V7.7645C11.1198 7.6265 11.2318 7.5145 11.3698 7.5145C11.5078 7.5145 11.6198 7.6265 11.6198 7.7645V9.9535C11.6198 10.0916 11.5078 10.2035 11.3698 10.2035Z" fill="#3762CC"/>
<path d="M11.3698 16.612C11.2318 16.612 11.1198 16.5 11.1198 16.362V14.173C11.1198 14.035 11.2318 13.923 11.3698 13.923C11.5078 13.923 11.6198 14.035 11.6198 14.173V16.362C11.6198 16.5 11.5078 16.612 11.3698 16.612Z" fill="#3762CC"/>
<path d="M4.232 21.9434H2.66812C2.327 21.9434 2.0495 21.6659 2.0495 21.3246V19.7606C2.0495 19.4195 2.327 19.1419 2.66812 19.1419H4.23212C4.57325 19.1419 4.85075 19.4194 4.85075 19.7606V21.3246C4.85075 21.6659 4.57325 21.9434 4.232 21.9434ZM2.66812 19.642C2.60275 19.642 2.5495 19.6953 2.5495 19.7608V21.3248C2.5495 21.3901 2.60275 21.4435 2.66812 21.4435H4.23212C4.2975 21.4435 4.35075 21.3903 4.35075 21.3248V19.7608C4.35075 19.6954 4.2975 19.642 4.23212 19.642H2.66812Z" fill="#3762CC"/>
<path d="M4.232 17.7036H2.66812C2.327 17.7036 2.0495 17.4261 2.0495 17.085V15.521C2.0495 15.1799 2.327 14.9024 2.66812 14.9024H4.23212C4.57325 14.9024 4.85075 15.1799 4.85075 15.521V17.085C4.85075 17.4261 4.57325 17.7036 4.232 17.7036ZM2.66812 15.4024C2.60275 15.4024 2.5495 15.4556 2.5495 15.521V17.085C2.5495 17.1504 2.60275 17.2036 2.66812 17.2036H4.23212C4.2975 17.2036 4.35075 17.1504 4.35075 17.085V15.521C4.35075 15.4556 4.2975 15.4024 4.23212 15.4024H2.66812Z" fill="#3762CC"/>
<path d="M4.232 13.4639H2.66812C2.327 13.4639 2.0495 13.1864 2.0495 12.8453V11.2813C2.0495 10.9401 2.327 10.6626 2.66812 10.6626H4.23212C4.57325 10.6626 4.85075 10.9401 4.85075 11.2813V12.8453C4.85075 13.1864 4.57325 13.4639 4.232 13.4639ZM2.66812 11.1626C2.60275 11.1626 2.5495 11.2159 2.5495 11.2813V12.8453C2.5495 12.9106 2.60275 12.9639 2.66812 12.9639H4.23212C4.2975 12.9639 4.35075 12.9106 4.35075 12.8453V11.2813C4.35075 11.2159 4.2975 11.1626 4.23212 11.1626H2.66812Z" fill="#3762CC"/>
<path d="M4.27775 5.03013H2.71375C2.37262 5.03013 2.09512 4.75263 2.09512 4.4115V2.84738C2.09512 2.50625 2.37262 2.22875 2.71375 2.22875H4.27775C4.61887 2.22875 4.89637 2.50625 4.89637 2.84738V4.41138C4.89637 4.75263 4.61887 5.03013 4.27775 5.03013ZM2.71375 2.72875C2.64837 2.72875 2.59512 2.782 2.59512 2.84738V4.41138C2.59512 4.47675 2.64837 4.53 2.71375 4.53H4.27775C4.34312 4.53 4.39637 4.47675 4.39637 4.41138V2.84738C4.39637 2.782 4.34312 2.72875 4.27775 2.72875H2.71375Z" fill="#3762CC"/>
<path d="M20.4994 21.9891H18.9353C18.5941 21.9891 18.3166 21.7116 18.3166 21.3704V19.8064C18.3166 19.4652 18.5941 19.1877 18.9353 19.1877H20.4994C20.8405 19.1877 21.118 19.4652 21.118 19.8064V21.3704C21.118 21.7115 20.8406 21.9891 20.4994 21.9891ZM18.9353 19.6877C18.8699 19.6877 18.8166 19.741 18.8166 19.8064V21.3704C18.8166 21.4357 18.8699 21.4891 18.9353 21.4891H20.4994C20.5648 21.4891 20.618 21.4359 20.618 21.3704V19.8064C20.618 19.741 20.5648 19.6877 20.4994 19.6877H18.9353Z" fill="#3762CC"/>
<path d="M20.4994 5.03013H18.9353C18.5941 5.03013 18.3166 4.75263 18.3166 4.4115V2.84738C18.3166 2.50625 18.5941 2.22875 18.9353 2.22875H20.4994C20.8405 2.22875 21.118 2.50625 21.118 2.84738V4.41138C21.118 4.75263 20.8406 5.03013 20.4994 5.03013ZM18.9353 2.72875C18.8699 2.72875 18.8166 2.782 18.8166 2.84738V4.41138C18.8166 4.47675 18.8699 4.53 18.9353 4.53H20.4994C20.5648 4.53 20.618 4.47675 20.618 4.41138V2.84738C20.618 2.782 20.5648 2.72875 20.4994 2.72875H18.9353Z" fill="#3762CC"/>
<path d="M4.232 9.22412H2.66812C2.327 9.22412 2.0495 8.94662 2.0495 8.6055V7.0415C2.0495 6.70037 2.327 6.42287 2.66812 6.42287H4.23212C4.57325 6.42287 4.85075 6.70037 4.85075 7.0415V8.6055C4.85075 8.94662 4.57325 9.22412 4.232 9.22412ZM2.66812 6.92287C2.60275 6.92287 2.5495 6.97612 2.5495 7.0415V8.6055C2.5495 8.67087 2.60275 8.72412 2.66812 8.72412H4.23212C4.2975 8.72412 4.35075 8.67087 4.35075 8.6055V7.0415C4.35075 6.97612 4.2975 6.92287 4.23212 6.92287H2.66812Z" fill="#3762CC"/>
<path d="M20.4538 17.7036H18.8896C18.5485 17.7036 18.271 17.4261 18.271 17.085V15.521C18.271 15.1799 18.5485 14.9024 18.8896 14.9024H20.4538C20.7949 14.9024 21.0724 15.1799 21.0724 15.521V17.085C21.0724 17.4261 20.7949 17.7036 20.4538 17.7036ZM18.8896 15.4024C18.8243 15.4024 18.771 15.4556 18.771 15.521V17.085C18.771 17.1504 18.8243 17.2036 18.8896 17.2036H20.4538C20.5191 17.2036 20.5724 17.1504 20.5724 17.085V15.521C20.5724 15.4556 20.5191 15.4024 20.4538 15.4024H18.8896Z" fill="#3762CC"/>
<path d="M20.4538 13.4639H18.8896C18.5485 13.4639 18.271 13.1864 18.271 12.8453V11.2813C18.271 10.9401 18.5485 10.6626 18.8896 10.6626H20.4538C20.7949 10.6626 21.0724 10.9401 21.0724 11.2813V12.8453C21.0724 13.1864 20.7949 13.4639 20.4538 13.4639ZM18.8896 11.1626C18.8243 11.1626 18.771 11.2159 18.771 11.2813V12.8453C18.771 12.9106 18.8243 12.9639 18.8896 12.9639H20.4538C20.5191 12.9639 20.5724 12.9106 20.5724 12.8453V11.2813C20.5724 11.2159 20.5191 11.1626 20.4538 11.1626H18.8896Z" fill="#3762CC"/>
<path d="M20.4538 9.22412H18.8896C18.5485 9.22412 18.271 8.94662 18.271 8.6055V7.0415C18.271 6.70037 18.5485 6.42287 18.8896 6.42287H20.4538C20.7949 6.42287 21.0724 6.70037 21.0724 7.0415V8.6055C21.0724 8.94662 20.7949 9.22412 20.4538 9.22412ZM18.8896 6.92287C18.8243 6.92287 18.771 6.97612 18.771 7.0415V8.6055C18.771 8.67087 18.8243 8.72412 18.8896 8.72412H20.4538C20.5191 8.72412 20.5724 8.67087 20.5724 8.6055V7.0415C20.5724 6.97612 20.5191 6.92287 20.4538 6.92287H18.8896Z" fill="#3762CC"/>
<path d="M21.3538 23.3735H1.76813C1.37613 23.3735 1.05713 23.0546 1.05713 22.6626V1.46387C1.05713 1.07187 1.37613 0.752998 1.76813 0.752998H21.3538C21.7458 0.752998 22.0646 1.07187 22.0646 1.46387V22.6625C22.0646 23.0546 21.7458 23.3735 21.3538 23.3735ZM1.76813 1.253C1.65175 1.253 1.55713 1.34762 1.55713 1.46387V22.6625C1.55713 22.7787 1.65175 22.8734 1.76813 22.8734H21.3538C21.47 22.8734 21.5646 22.7787 21.5646 22.6625V1.46387C21.5646 1.34762 21.47 1.253 21.3538 1.253H1.76813Z" fill="#3762CC"/>
<path d="M17.1601 19.642H5.96163C5.6205 19.642 5.343 19.3645 5.343 19.0234V5.10313C5.343 4.762 5.6205 4.48438 5.96163 4.48438H17.1601C17.5012 4.48438 17.7787 4.76188 17.7787 5.10313V19.0234C17.7787 19.3645 17.5014 19.642 17.1601 19.642ZM5.96163 4.98438C5.89625 4.98438 5.843 5.03763 5.843 5.10313V19.0234C5.843 19.0887 5.89625 19.142 5.96163 19.142H17.1601C17.2255 19.142 17.2787 19.0887 17.2787 19.0234V5.10313C17.2787 5.03775 17.2255 4.98438 17.1601 4.98438H5.96163Z" fill="#3762CC"/>
<path d="M17.5287 23.3735H5.593C5.455 23.3735 5.343 23.2615 5.343 23.1235V22.0621C5.343 21.721 5.6205 21.4435 5.96163 21.4435H17.1601C17.5012 21.4435 17.7787 21.721 17.7787 22.0621V23.1235C17.7787 23.2615 17.6669 23.3735 17.5287 23.3735ZM5.843 22.8735H17.2787V22.0621C17.2787 21.9967 17.2255 21.9435 17.1601 21.9435H5.96163C5.89625 21.9435 5.843 21.9967 5.843 22.0621V22.8735Z" fill="#3762CC"/>
<path d="M17.1601 2.68312H5.96163C5.6205 2.68312 5.343 2.40562 5.343 2.0645V1.003C5.343 0.864998 5.455 0.752998 5.593 0.752998H17.5287C17.6667 0.752998 17.7787 0.864998 17.7787 1.003V2.06437C17.7787 2.40562 17.5014 2.68312 17.1601 2.68312ZM5.843 1.253V2.06437C5.843 2.12975 5.89625 2.183 5.96163 2.183H17.1601C17.2255 2.183 17.2787 2.12975 17.2787 2.06437V1.253H5.843Z" fill="#3762CC"/>
<path d="M28.748 30.9969H14.9018C13.8278 30.9969 12.957 30.1261 12.957 29.0521V17.0962C12.957 16.0222 13.8278 15.1515 14.9018 15.1515H28.748C29.822 15.1515 30.6928 16.0222 30.6928 17.0962V29.0521C30.6929 30.1262 29.8221 30.9969 28.748 30.9969Z" fill="#E0EBFC"/>
<path d="M12.9571 17.0964V19.1516H30.6929V17.0964C30.6929 16.0224 29.8221 15.1516 28.7481 15.1516H14.9019C13.8277 15.1516 12.9571 16.0222 12.9571 17.0964Z" fill="#6BDDDD"/>
<path d="M18.766 22.4824V21.0744C18.766 20.9362 18.8779 20.8244 19.016 20.8244H20.8056C20.9437 20.8244 21.0556 20.9362 21.0556 21.0744V22.4824C21.0556 22.6205 20.9437 22.7324 20.8056 22.7324H19.016C18.8779 22.7324 18.766 22.6204 18.766 22.4824Z" fill="#A4C9FF"/>
<path d="M26.3286 22.4824V21.0744C26.3286 20.9362 26.4405 20.8244 26.5786 20.8244H28.3683C28.5064 20.8244 28.6183 20.9362 28.6183 21.0744V22.4824C28.6183 22.6205 28.5064 22.7324 28.3683 22.7324H26.5786C26.4405 22.7324 26.3286 22.6204 26.3286 22.4824Z" fill="#A4C9FF"/>
<path d="M14.9847 25.623V24.215C14.9847 24.0769 15.0966 23.965 15.2347 23.965H17.0244C17.1625 23.965 17.2744 24.0769 17.2744 24.215V25.623C17.2744 25.7611 17.1625 25.873 17.0244 25.873H15.2347C15.0966 25.873 14.9847 25.7611 14.9847 25.623Z" fill="#A4C9FF"/>
<path d="M18.766 25.623V24.215C18.766 24.0769 18.8779 23.965 19.016 23.965H20.8056C20.9437 23.965 21.0556 24.0769 21.0556 24.215V25.623C21.0556 25.7611 20.9437 25.873 20.8056 25.873H19.016C18.8779 25.873 18.766 25.7611 18.766 25.623Z" fill="#A4C9FF"/>
<path d="M22.5472 25.623V24.215C22.5472 24.0769 22.6591 23.965 22.7972 23.965H24.5869C24.725 23.965 24.8369 24.0769 24.8369 24.215V25.623C24.8369 25.7611 24.725 25.873 24.5869 25.873H22.7972C22.6592 25.873 22.5472 25.7611 22.5472 25.623Z" fill="#A4C9FF"/>
<path d="M26.3286 25.623V24.215C26.3286 24.0769 26.4405 23.965 26.5786 23.965H28.3683C28.5064 23.965 28.6183 24.0769 28.6183 24.215V25.623C28.6183 25.7611 28.5064 25.873 28.3683 25.873H26.5786C26.4405 25.873 26.3286 25.7611 26.3286 25.623Z" fill="#A4C9FF"/>
<path d="M14.9847 28.9208V27.5128C14.9847 27.3746 15.0966 27.2628 15.2347 27.2628H17.0244C17.1625 27.2628 17.2744 27.3746 17.2744 27.5128V28.9208C17.2744 29.0589 17.1625 29.1708 17.0244 29.1708H15.2347C15.0966 29.1708 14.9847 29.0589 14.9847 28.9208Z" fill="#A4C9FF"/>
<path d="M18.766 28.9208V27.5128C18.766 27.3746 18.8779 27.2628 19.016 27.2628H20.8056C20.9437 27.2628 21.0556 27.3746 21.0556 27.5128V28.9208C21.0556 29.0589 20.9437 29.1708 20.8056 29.1708H19.016C18.8779 29.1708 18.766 29.0589 18.766 28.9208Z" fill="#A4C9FF"/>
<path d="M22.5472 28.9208V27.5128C22.5472 27.3746 22.6591 27.2628 22.7972 27.2628H24.5869C24.725 27.2628 24.8369 27.3746 24.8369 27.5128V28.9208C24.8369 29.0589 24.725 29.1708 24.5869 29.1708H22.7972C22.6592 29.1708 22.5472 29.0589 22.5472 28.9208Z" fill="#A4C9FF"/>
<path d="M28.748 31.247H14.9018C13.6915 31.247 12.7069 30.2625 12.7069 29.0522V17.0964C12.7069 15.8861 13.6915 14.9016 14.9018 14.9016H28.748C29.9583 14.9016 30.9429 15.8861 30.9429 17.0964V29.0522C30.9429 30.2624 29.9583 31.247 28.748 31.247ZM14.9019 15.4015C13.9673 15.4015 13.207 16.1617 13.207 17.0962V29.0521C13.207 29.9866 13.9673 30.7469 14.9019 30.7469H28.7481C29.6828 30.7469 30.443 29.9866 30.443 29.0521V17.0962C30.443 16.1617 29.6828 15.4015 28.7481 15.4015H14.9019Z" fill="#3762CC"/>
<path d="M30.6929 19.4015H12.957C12.819 19.4015 12.707 19.2895 12.707 19.1515V17.0963C12.707 15.886 13.6916 14.9015 14.9019 14.9015H28.7481C29.9584 14.9015 30.943 15.886 30.943 17.0963V19.1515C30.9429 19.2896 30.8309 19.4015 30.6929 19.4015ZM13.207 18.9015H30.4429V17.0963C30.4429 16.1617 29.6826 15.4015 28.748 15.4015H14.9018C13.9671 15.4015 13.2069 16.1617 13.2069 17.0963V18.9015H13.207Z" fill="#3762CC"/>
<path d="M26.8131 17.5836H26.7742C26.2641 17.5836 25.8505 17.17 25.8505 16.6599V14.3505C25.8505 13.8404 26.2641 13.4268 26.7742 13.4268H26.8131C27.3232 13.4268 27.7369 13.8404 27.7369 14.3505V16.6599C27.7369 17.17 27.3232 17.5836 26.8131 17.5836Z" fill="#F9CFCF"/>
<path d="M16.8756 17.5836H16.8368C16.3266 17.5836 15.913 17.17 15.913 16.6599V14.3505C15.913 13.8404 16.3266 13.4268 16.8368 13.4268H16.8756C17.3858 13.4268 17.7994 13.8404 17.7994 14.3505V16.6599C17.7994 17.17 17.3858 17.5836 16.8756 17.5836Z" fill="#F9CFCF"/>
<path d="M21.8209 17.5836H21.782C21.2719 17.5836 20.8583 17.17 20.8583 16.6599V14.3505C20.8583 13.8404 21.2719 13.4268 21.782 13.4268H21.8209C22.331 13.4268 22.7446 13.8404 22.7446 14.3505V16.6599C22.7446 17.17 22.331 17.5836 21.8209 17.5836Z" fill="#F9CFCF"/>
<path d="M26.8131 17.8335H26.7742C26.127 17.8335 25.6005 17.307 25.6005 16.6597V14.3504C25.6005 13.7033 26.127 13.1766 26.7742 13.1766H26.8131C27.4604 13.1766 27.9869 13.7031 27.9869 14.3504V16.6597C27.9869 17.307 27.4604 17.8335 26.8131 17.8335ZM26.7742 13.6768C26.4027 13.6768 26.1005 13.979 26.1005 14.3505V16.6599C26.1005 17.0314 26.4027 17.3336 26.7742 17.3336H26.8131C27.1846 17.3336 27.4869 17.0314 27.4869 16.6599V14.3505C27.4869 13.979 27.1846 13.6768 26.8131 13.6768H26.7742Z" fill="#3762CC"/>
<path d="M16.8756 17.8335H16.8368C16.1895 17.8335 15.663 17.307 15.663 16.6597V14.3504C15.663 13.7033 16.1895 13.1766 16.8368 13.1766H16.8756C17.5229 13.1766 18.0494 13.7031 18.0494 14.3504V16.6597C18.0494 17.307 17.5229 17.8335 16.8756 17.8335ZM16.8368 13.6768C16.4653 13.6768 16.163 13.979 16.163 14.3505V16.6599C16.163 17.0314 16.4653 17.3336 16.8368 17.3336H16.8756C17.2471 17.3336 17.5494 17.0314 17.5494 16.6599V14.3505C17.5494 13.979 17.2471 13.6768 16.8756 13.6768H16.8368Z" fill="#3762CC"/>
<path d="M21.8209 17.8335H21.7819C21.1346 17.8335 20.6081 17.307 20.6081 16.6597V14.3504C20.6081 13.7033 21.1346 13.1766 21.7819 13.1766H21.8209C22.4681 13.1766 22.9946 13.7031 22.9946 14.3504V16.6597C22.9946 17.307 22.4681 17.8335 21.8209 17.8335ZM21.782 13.6768C21.4105 13.6768 21.1082 13.979 21.1082 14.3505V16.6599C21.1082 17.0314 21.4105 17.3336 21.782 17.3336H21.821C22.1925 17.3336 22.4947 17.0314 22.4947 16.6599V14.3505C22.4947 13.979 22.1925 13.6768 21.821 13.6768H21.782Z" fill="#3762CC"/>
<path d="M23.6921 23.5919C24.6937 23.5919 25.5056 22.7799 25.5056 21.7784C25.5056 20.7768 24.6937 19.9649 23.6921 19.9649C22.6906 19.9649 21.8786 20.7768 21.8786 21.7784C21.8786 22.7799 22.6906 23.5919 23.6921 23.5919Z" fill="#F9A7A7"/>
<path d="M22.5472 22.4824V21.0744C22.5472 20.9362 22.6591 20.8244 22.7972 20.8244H24.5869C24.725 20.8244 24.8369 20.9362 24.8369 21.0744V22.4824C24.8369 22.6205 24.725 22.7324 24.5869 22.7324H22.7972C22.6592 22.7324 22.5472 22.6204 22.5472 22.4824Z" fill="#A4C9FF"/>
</svg>
